<mxfile host="app.diagrams.net" modified="2025-01-13T08:55:44.413Z" agent="Mozilla/5.0 (Windows NT 10.0; Win64; x64) AppleWebKit/537.36 (KHTML, like Gecko) Chrome/132.0.0.0 Safari/537.36 Edg/132.0.0.0" etag="2xUAm6eGrgWrC5cvhdwi" version="21.4.0" type="device">
  <diagram name="Page-1" id="gGNRgb0aj2Bi2EEb9K6Y">
    <mxGraphModel dx="1339" dy="753" grid="1" gridSize="10" guides="1" tooltips="1" connect="1" arrows="1" fold="1" page="1" pageScale="1" pageWidth="850" pageHeight="1100" math="0" shadow="0">
      <root>
        <mxCell id="0" />
        <mxCell id="1" parent="0" />
        <mxCell id="khi4yiSslxtjA7y-Bpzj-1" value="" style="rounded=0;whiteSpace=wrap;html=1;" vertex="1" parent="1">
          <mxGeometry x="230" y="100" width="250" height="440" as="geometry" />
        </mxCell>
        <mxCell id="khi4yiSslxtjA7y-Bpzj-2" value="" style="rounded=0;whiteSpace=wrap;html=1;" vertex="1" parent="1">
          <mxGeometry x="250" y="488" width="220" height="40" as="geometry" />
        </mxCell>
        <mxCell id="khi4yiSslxtjA7y-Bpzj-10" value="" style="group" vertex="1" connectable="0" parent="1">
          <mxGeometry x="280" y="495" width="10" height="25" as="geometry" />
        </mxCell>
        <mxCell id="khi4yiSslxtjA7y-Bpzj-11" value="" style="ellipse;whiteSpace=wrap;html=1;fillColor=#6a00ff;fontColor=#ffffff;strokeColor=#3700CC;" vertex="1" parent="khi4yiSslxtjA7y-Bpzj-10">
          <mxGeometry width="10" height="10" as="geometry" />
        </mxCell>
        <mxCell id="khi4yiSslxtjA7y-Bpzj-12" value="" style="ellipse;whiteSpace=wrap;html=1;" vertex="1" parent="khi4yiSslxtjA7y-Bpzj-10">
          <mxGeometry y="15" width="10" height="10" as="geometry" />
        </mxCell>
        <mxCell id="khi4yiSslxtjA7y-Bpzj-22" value="" style="group;container=0;" vertex="1" connectable="0" parent="1">
          <mxGeometry x="320" y="495" width="10" height="25" as="geometry" />
        </mxCell>
        <mxCell id="khi4yiSslxtjA7y-Bpzj-28" value="" style="group;container=0;" vertex="1" connectable="0" parent="1">
          <mxGeometry x="340" y="495" width="10" height="25" as="geometry" />
        </mxCell>
        <mxCell id="khi4yiSslxtjA7y-Bpzj-31" value="" style="group" vertex="1" connectable="0" parent="1">
          <mxGeometry x="350" y="495" width="10" height="25" as="geometry" />
        </mxCell>
        <mxCell id="khi4yiSslxtjA7y-Bpzj-32" value="" style="ellipse;whiteSpace=wrap;html=1;fillColor=#6a00ff;fontColor=#ffffff;strokeColor=#3700CC;" vertex="1" parent="khi4yiSslxtjA7y-Bpzj-31">
          <mxGeometry width="10" height="10" as="geometry" />
        </mxCell>
        <mxCell id="khi4yiSslxtjA7y-Bpzj-33" value="" style="ellipse;whiteSpace=wrap;html=1;" vertex="1" parent="khi4yiSslxtjA7y-Bpzj-31">
          <mxGeometry y="15" width="10" height="10" as="geometry" />
        </mxCell>
        <mxCell id="khi4yiSslxtjA7y-Bpzj-34" value="" style="group" vertex="1" connectable="0" parent="1">
          <mxGeometry x="360" y="495" width="10" height="25" as="geometry" />
        </mxCell>
        <mxCell id="khi4yiSslxtjA7y-Bpzj-35" value="" style="ellipse;whiteSpace=wrap;html=1;fillColor=#008a00;fontColor=#ffffff;strokeColor=#005700;" vertex="1" parent="khi4yiSslxtjA7y-Bpzj-34">
          <mxGeometry width="10" height="10" as="geometry" />
        </mxCell>
        <mxCell id="khi4yiSslxtjA7y-Bpzj-36" value="" style="ellipse;whiteSpace=wrap;html=1;" vertex="1" parent="khi4yiSslxtjA7y-Bpzj-34">
          <mxGeometry y="15" width="10" height="10" as="geometry" />
        </mxCell>
        <mxCell id="khi4yiSslxtjA7y-Bpzj-52" value="" style="group" vertex="1" connectable="0" parent="1">
          <mxGeometry x="420" y="495" width="10" height="25" as="geometry" />
        </mxCell>
        <mxCell id="khi4yiSslxtjA7y-Bpzj-53" value="" style="ellipse;whiteSpace=wrap;html=1;fillColor=#008a00;fontColor=#ffffff;strokeColor=#005700;" vertex="1" parent="khi4yiSslxtjA7y-Bpzj-52">
          <mxGeometry width="10" height="10" as="geometry" />
        </mxCell>
        <mxCell id="khi4yiSslxtjA7y-Bpzj-54" value="" style="ellipse;whiteSpace=wrap;html=1;" vertex="1" parent="khi4yiSslxtjA7y-Bpzj-52">
          <mxGeometry y="15" width="10" height="10" as="geometry" />
        </mxCell>
        <mxCell id="khi4yiSslxtjA7y-Bpzj-17" value="" style="ellipse;whiteSpace=wrap;html=1;fillColor=#008a00;fontColor=#ffffff;strokeColor=#005700;" vertex="1" parent="1">
          <mxGeometry x="300" y="495" width="10" height="10" as="geometry" />
        </mxCell>
        <mxCell id="khi4yiSslxtjA7y-Bpzj-18" value="" style="ellipse;whiteSpace=wrap;html=1;" vertex="1" parent="1">
          <mxGeometry x="300" y="510" width="10" height="10" as="geometry" />
        </mxCell>
        <mxCell id="khi4yiSslxtjA7y-Bpzj-20" value="" style="ellipse;whiteSpace=wrap;html=1;fillColor=#6a00ff;fontColor=#ffffff;strokeColor=#3700CC;" vertex="1" parent="1">
          <mxGeometry x="310" y="495" width="10" height="10" as="geometry" />
        </mxCell>
        <mxCell id="khi4yiSslxtjA7y-Bpzj-21" value="" style="ellipse;whiteSpace=wrap;html=1;" vertex="1" parent="1">
          <mxGeometry x="310" y="510" width="10" height="10" as="geometry" />
        </mxCell>
        <mxCell id="khi4yiSslxtjA7y-Bpzj-23" value="" style="ellipse;whiteSpace=wrap;html=1;fillColor=#6a00ff;fontColor=#ffffff;strokeColor=#3700CC;" vertex="1" parent="1">
          <mxGeometry x="320" y="495" width="10" height="10" as="geometry" />
        </mxCell>
        <mxCell id="khi4yiSslxtjA7y-Bpzj-24" value="" style="ellipse;whiteSpace=wrap;html=1;" vertex="1" parent="1">
          <mxGeometry x="320" y="510" width="10" height="10" as="geometry" />
        </mxCell>
        <mxCell id="khi4yiSslxtjA7y-Bpzj-26" value="" style="ellipse;whiteSpace=wrap;html=1;fillColor=#008a00;fontColor=#ffffff;strokeColor=#005700;" vertex="1" parent="1">
          <mxGeometry x="330" y="495" width="10" height="10" as="geometry" />
        </mxCell>
        <mxCell id="khi4yiSslxtjA7y-Bpzj-27" value="" style="ellipse;whiteSpace=wrap;html=1;" vertex="1" parent="1">
          <mxGeometry x="330" y="510" width="10" height="10" as="geometry" />
        </mxCell>
        <mxCell id="khi4yiSslxtjA7y-Bpzj-38" value="" style="ellipse;whiteSpace=wrap;html=1;fillColor=#6a00ff;fontColor=#ffffff;strokeColor=#3700CC;" vertex="1" parent="1">
          <mxGeometry x="370" y="495" width="10" height="10" as="geometry" />
        </mxCell>
        <mxCell id="khi4yiSslxtjA7y-Bpzj-39" value="" style="ellipse;whiteSpace=wrap;html=1;" vertex="1" parent="1">
          <mxGeometry x="370" y="510" width="10" height="10" as="geometry" />
        </mxCell>
        <mxCell id="khi4yiSslxtjA7y-Bpzj-41" value="" style="ellipse;whiteSpace=wrap;html=1;fillColor=#6a00ff;fontColor=#ffffff;strokeColor=#3700CC;" vertex="1" parent="1">
          <mxGeometry x="380" y="495" width="10" height="10" as="geometry" />
        </mxCell>
        <mxCell id="khi4yiSslxtjA7y-Bpzj-42" value="" style="ellipse;whiteSpace=wrap;html=1;" vertex="1" parent="1">
          <mxGeometry x="380" y="510" width="10" height="10" as="geometry" />
        </mxCell>
        <mxCell id="khi4yiSslxtjA7y-Bpzj-43" value="" style="group;container=0;" vertex="1" connectable="0" parent="1">
          <mxGeometry x="390" y="495" width="10" height="25" as="geometry" />
        </mxCell>
        <mxCell id="khi4yiSslxtjA7y-Bpzj-44" value="" style="ellipse;whiteSpace=wrap;html=1;fillColor=#008a00;fontColor=#ffffff;strokeColor=#005700;" vertex="1" parent="1">
          <mxGeometry x="390" y="495" width="10" height="10" as="geometry" />
        </mxCell>
        <mxCell id="khi4yiSslxtjA7y-Bpzj-45" value="" style="ellipse;whiteSpace=wrap;html=1;" vertex="1" parent="1">
          <mxGeometry x="390" y="510" width="10" height="10" as="geometry" />
        </mxCell>
        <mxCell id="khi4yiSslxtjA7y-Bpzj-50" value="" style="ellipse;whiteSpace=wrap;html=1;fillColor=#6a00ff;fontColor=#ffffff;strokeColor=#3700CC;" vertex="1" parent="1">
          <mxGeometry x="410" y="495" width="10" height="10" as="geometry" />
        </mxCell>
        <mxCell id="khi4yiSslxtjA7y-Bpzj-51" value="" style="ellipse;whiteSpace=wrap;html=1;" vertex="1" parent="1">
          <mxGeometry x="410" y="510" width="10" height="10" as="geometry" />
        </mxCell>
        <mxCell id="khi4yiSslxtjA7y-Bpzj-59" value="" style="ellipse;whiteSpace=wrap;html=1;fillColor=#6a00ff;fontColor=#ffffff;strokeColor=#3700CC;" vertex="1" parent="1">
          <mxGeometry x="440" y="495" width="10" height="10" as="geometry" />
        </mxCell>
        <mxCell id="khi4yiSslxtjA7y-Bpzj-60" value="" style="ellipse;whiteSpace=wrap;html=1;" vertex="1" parent="1">
          <mxGeometry x="440" y="510" width="10" height="10" as="geometry" />
        </mxCell>
        <mxCell id="khi4yiSslxtjA7y-Bpzj-29" value="" style="ellipse;whiteSpace=wrap;html=1;fillColor=#6a00ff;fontColor=#ffffff;strokeColor=#3700CC;" vertex="1" parent="1">
          <mxGeometry x="340" y="495" width="10" height="10" as="geometry" />
        </mxCell>
        <mxCell id="khi4yiSslxtjA7y-Bpzj-30" value="" style="ellipse;whiteSpace=wrap;html=1;" vertex="1" parent="1">
          <mxGeometry x="340" y="510" width="10" height="10" as="geometry" />
        </mxCell>
        <mxCell id="khi4yiSslxtjA7y-Bpzj-47" value="" style="ellipse;whiteSpace=wrap;html=1;fillColor=#6a00ff;fontColor=#ffffff;strokeColor=#3700CC;" vertex="1" parent="1">
          <mxGeometry x="400" y="495" width="10" height="10" as="geometry" />
        </mxCell>
        <mxCell id="khi4yiSslxtjA7y-Bpzj-48" value="" style="ellipse;whiteSpace=wrap;html=1;" vertex="1" parent="1">
          <mxGeometry x="400" y="510" width="10" height="10" as="geometry" />
        </mxCell>
        <mxCell id="khi4yiSslxtjA7y-Bpzj-56" value="" style="ellipse;whiteSpace=wrap;html=1;fillColor=#6a00ff;fontColor=#ffffff;strokeColor=#3700CC;" vertex="1" parent="1">
          <mxGeometry x="430" y="495" width="10" height="10" as="geometry" />
        </mxCell>
        <mxCell id="khi4yiSslxtjA7y-Bpzj-57" value="" style="ellipse;whiteSpace=wrap;html=1;" vertex="1" parent="1">
          <mxGeometry x="430" y="510" width="10" height="10" as="geometry" />
        </mxCell>
        <mxCell id="khi4yiSslxtjA7y-Bpzj-62" value="" style="ellipse;whiteSpace=wrap;html=1;fillColor=#008a00;fontColor=#ffffff;strokeColor=#005700;" vertex="1" parent="1">
          <mxGeometry x="450" y="495" width="10" height="10" as="geometry" />
        </mxCell>
        <mxCell id="khi4yiSslxtjA7y-Bpzj-63" value="" style="ellipse;whiteSpace=wrap;html=1;" vertex="1" parent="1">
          <mxGeometry x="450" y="510" width="10" height="10" as="geometry" />
        </mxCell>
        <mxCell id="khi4yiSslxtjA7y-Bpzj-8" value="" style="ellipse;whiteSpace=wrap;html=1;fillColor=#008a00;fontColor=#ffffff;strokeColor=#005700;" vertex="1" parent="1">
          <mxGeometry x="270" y="495" width="10" height="10" as="geometry" />
        </mxCell>
        <mxCell id="khi4yiSslxtjA7y-Bpzj-9" value="" style="ellipse;whiteSpace=wrap;html=1;" vertex="1" parent="1">
          <mxGeometry x="270" y="510" width="10" height="10" as="geometry" />
        </mxCell>
        <mxCell id="khi4yiSslxtjA7y-Bpzj-3" value="" style="ellipse;whiteSpace=wrap;html=1;fillColor=#008a00;fontColor=#ffffff;strokeColor=#005700;" vertex="1" parent="1">
          <mxGeometry x="260" y="495" width="10" height="10" as="geometry" />
        </mxCell>
        <mxCell id="khi4yiSslxtjA7y-Bpzj-5" value="" style="ellipse;whiteSpace=wrap;html=1;fillColor=#1ba1e2;fontColor=#ffffff;strokeColor=#006EAF;" vertex="1" parent="1">
          <mxGeometry x="260" y="510" width="10" height="10" as="geometry" />
        </mxCell>
        <mxCell id="khi4yiSslxtjA7y-Bpzj-65" value="" style="ellipse;whiteSpace=wrap;html=1;fillColor=#008a00;fontColor=#ffffff;strokeColor=#005700;" vertex="1" parent="1">
          <mxGeometry x="252" y="549" width="10" height="10" as="geometry" />
        </mxCell>
        <mxCell id="khi4yiSslxtjA7y-Bpzj-66" value="Column" style="text;html=1;strokeColor=none;fillColor=none;align=left;verticalAlign=middle;whiteSpace=wrap;rounded=0;" vertex="1" parent="1">
          <mxGeometry x="260" y="540" width="60" height="30" as="geometry" />
        </mxCell>
        <mxCell id="khi4yiSslxtjA7y-Bpzj-14" value="" style="ellipse;whiteSpace=wrap;html=1;fillColor=#6a00ff;fontColor=#ffffff;strokeColor=#3700CC;" vertex="1" parent="1">
          <mxGeometry x="290" y="495" width="10" height="10" as="geometry" />
        </mxCell>
        <mxCell id="khi4yiSslxtjA7y-Bpzj-15" value="" style="ellipse;whiteSpace=wrap;html=1;" vertex="1" parent="1">
          <mxGeometry x="290" y="510" width="10" height="10" as="geometry" />
        </mxCell>
        <mxCell id="khi4yiSslxtjA7y-Bpzj-71" value="" style="ellipse;whiteSpace=wrap;html=1;fillColor=#6a00ff;fontColor=#ffffff;strokeColor=#3700CC;" vertex="1" parent="1">
          <mxGeometry x="252" y="570" width="10" height="10" as="geometry" />
        </mxCell>
        <mxCell id="khi4yiSslxtjA7y-Bpzj-72" value="Row" style="text;html=1;strokeColor=none;fillColor=none;align=left;verticalAlign=middle;whiteSpace=wrap;rounded=0;" vertex="1" parent="1">
          <mxGeometry x="262" y="560" width="60" height="30" as="geometry" />
        </mxCell>
        <mxCell id="khi4yiSslxtjA7y-Bpzj-73" value="" style="ellipse;whiteSpace=wrap;html=1;fillColor=#1ba1e2;fontColor=#ffffff;strokeColor=#006EAF;" vertex="1" parent="1">
          <mxGeometry x="252" y="590" width="10" height="10" as="geometry" />
        </mxCell>
        <mxCell id="khi4yiSslxtjA7y-Bpzj-74" value="Ground" style="text;html=1;strokeColor=none;fillColor=none;align=left;verticalAlign=middle;whiteSpace=wrap;rounded=0;" vertex="1" parent="1">
          <mxGeometry x="265" y="580" width="60" height="30" as="geometry" />
        </mxCell>
      </root>
    </mxGraphModel>
  </diagram>
</mxfile>
